<svg width="27" height="28" viewBox="0 0 27 28" fill="none" xmlns="http://www.w3.org/2000/svg">
<path d="M0.56 28V-1.90735e-06H11.96C14.9467 -1.90735e-06 17.56 0.599998 19.8 1.8C22.0667 2.97333 23.8267 4.61333 25.08 6.72C26.3333 8.82667 26.96 11.2533 26.96 14C26.96 16.7467 26.3333 19.1733 25.08 21.28C23.8267 23.3867 22.0667 25.04 19.8 26.24C17.56 27.4133 14.9467 28 11.96 28H0.56ZM3.52 25.44H11.8C14.28 25.44 16.4267 24.96 18.24 24C20.08 23.0133 21.5067 21.6667 22.52 19.96C23.5333 18.2267 24.04 16.24 24.04 14C24.04 11.7333 23.5333 9.74667 22.52 8.04C21.5067 6.33333 20.08 5 18.24 4.04C16.4267 3.05333 14.28 2.56 11.8 2.56H3.52V25.44Z" fill="#FF4E50"/>
</svg>
